<?xml version="1.0" standalone="no"?>
<!DOCTYPE svg PUBLIC "-//W3C//DTD SVG 20010904//EN"
 "http://www.w3.org/TR/2001/REC-SVG-20010904/DTD/svg10.dtd">
<svg version="1.0" xmlns="http://www.w3.org/2000/svg"
 width="719.000000pt" height="574.000000pt" viewBox="0 0 719.000000 574.000000"
 preserveAspectRatio="xMidYMid meet">

<g transform="translate(0.000000,574.000000) scale(0.100000,-0.100000)"
fill="#000000" stroke="none">
<path d="M130 5710 c0 -38 24 -86 49 -100 72 -38 170 24 159 102 -3 22 -7 23
-105 26 l-103 3 0 -31z"/>
<path d="M510 5700 c0 -90 102 -133 171 -72 24 22 32 37 33 68 l1 39 -102 3
-103 3 0 -41z"/>
<path d="M886 5725 c-10 -28 6 -75 36 -100 58 -49 148 -23 166 48 17 63 11 67
-98 67 -78 0 -99 -3 -104 -15z"/>
<path d="M5830 5690 c0 -6 57 -10 150 -10 93 0 150 4 150 10 0 6 -57 10 -150
10 -93 0 -150 -4 -150 -10z"/>
<path d="M5830 5615 c0 -13 19 -15 145 -13 88 2 145 7 145 13 0 6 -57 11 -145
13 -126 2 -145 0 -145 -13z"/>
<path d="M3813 4058 c-4 -7 -12 -22 -18 -32 -5 -11 -23 -24 -40 -29 -16 -5
-36 -14 -42 -20 -21 -16 -15 -52 12 -77 18 -17 25 -33 23 -56 -3 -45 18 -67
56 -59 40 8 75 9 107 0 37 -10 60 17 57 66 -1 23 4 45 14 56 37 44 23 86 -35
97 -22 4 -38 16 -50 36 -14 22 -26 30 -47 30 -16 0 -32 -6 -37 -12z"/>
<path d="M3409 4026 c-11 -20 -31 -37 -47 -41 -59 -15 -68 -48 -26 -98 18 -21
24 -37 19 -54 -3 -13 0 -33 6 -44 9 -18 17 -20 47 -14 49 8 81 8 113 0 38 -10
63 18 55 63 -4 26 0 41 14 60 35 44 21 92 -27 92 -21 0 -35 11 -71 54 -23 28
-61 20 -83 -18z"/>
<path d="M5215 3985 c-27 -8 -58 -13 -68 -11 -14 3 -16 0 -12 -15 5 -14 2 -19
-14 -19 -17 0 -19 -5 -14 -35 5 -31 2 -36 -25 -52 -36 -21 -43 -39 -29 -73 6
-14 11 -54 12 -90 2 -98 49 -177 131 -218 87 -44 160 -40 247 12 31 19 58 32
60 30 2 -3 17 1 32 8 27 12 53 54 74 120 16 47 17 169 2 196 -15 27 -65 54
-94 50 -15 -2 -32 8 -51 30 -60 68 -157 94 -251 67z"/>
<path d="M5286 3353 c-85 -4 -91 -5 -126 -37 -36 -32 -173 -83 -270 -100 -67
-12 -84 -37 -171 -251 -45 -110 -85 -210 -89 -221 l-9 -22 -117 35 c-94 28
-118 32 -125 21 -7 -10 -19 -7 -61 16 -29 16 -60 35 -69 42 -8 8 -32 14 -51
14 -28 0 -42 -7 -62 -31 -30 -35 -32 -49 -11 -89 17 -34 50 -45 102 -37 46 8
103 -24 103 -56 0 -17 17 -33 68 -63 38 -23 85 -44 105 -48 21 -4 52 -21 73
-41 48 -46 135 -99 144 -88 4 4 28 37 55 73 27 36 52 69 56 74 11 13 2 -293
-10 -339 -6 -22 -11 -57 -11 -77 0 -26 -17 -68 -56 -140 -117 -213 -160 -333
-194 -534 -17 -99 -21 -155 -18 -239 l5 -110 105 -260 c149 -368 171 -430 177
-510 l6 -70 45 3 45 3 43 -87 43 -86 -22 -34 c-11 -19 -28 -41 -36 -49 -13
-13 2 -15 121 -15 75 0 136 4 136 9 0 26 -32 82 -45 78 -7 -3 -16 2 -20 11
-17 42 -75 212 -75 219 0 4 14 16 30 25 17 9 30 21 30 26 0 5 -17 29 -39 53
-35 40 -48 74 -145 377 l-106 332 107 215 c59 118 111 215 114 215 4 0 43
-150 87 -332 l81 -333 11 -355 c13 -418 13 -423 42 -414 27 8 38 -10 38 -63 0
-30 -5 -45 -17 -52 -13 -8 3 -10 64 -11 l82 0 3 63 c3 58 5 62 26 60 l22 -3 0
193 c0 105 -7 323 -15 483 -14 277 -13 299 5 435 29 218 39 329 49 504 8 147
11 161 31 175 21 15 55 50 122 125 31 34 38 38 52 26 9 -8 18 -12 20 -10 2 2
26 38 54 81 28 42 65 86 81 97 30 22 222 335 220 362 0 8 -55 135 -122 283
-138 303 -153 324 -244 333 -26 2 -87 18 -134 34 -81 29 -87 32 -107 75 l-22
44 -57 -2 c-32 -1 -98 -4 -147 -5z m435 -699 c13 -14 45 -40 72 -57 26 -16 47
-32 47 -34 0 -2 -29 -43 -64 -91 -68 -94 -151 -272 -140 -304 3 -12 -4 -30
-20 -49 -30 -36 -31 -32 -11 81 12 67 13 97 4 142 -11 54 -10 59 19 110 21 37
34 79 43 141 7 48 15 87 19 87 4 0 17 -12 31 -26z"/>
</g>
</svg>
